<?xml version="1.0" encoding="utf-8"?>
<svg xmlns="http://www.w3.org/2000/svg" version="1.1" width="560" height="560">
<rect width="560" height="560" fill="white" x="0" y="0"/>

<line x1="406" y1="149" x2="454" y2="90" stroke="darkgray"/>
<line x1="406" y1="149" x2="393" y2="50" stroke="darkgray"/>
<line x1="406" y1="149" x2="326" y2="151" stroke="darkgray"/>
<line x1="406" y1="149" x2="406" y2="223" stroke="darkgray"/>
<line x1="406" y1="149" x2="482" y2="172" stroke="darkgray"/>
<line x1="148" y1="234" x2="233" y2="229" stroke="darkgray"/>
<line x1="148" y1="234" x2="101" y2="226" stroke="darkgray"/>
<line x1="148" y1="234" x2="145" y2="315" stroke="darkgray"/>
<line x1="148" y1="234" x2="196" y2="300" stroke="darkgray"/>
<line x1="148" y1="234" x2="222" y2="200" stroke="darkgray"/>
<line x1="148" y1="234" x2="59" y2="204" stroke="darkgray"/>
<line x1="148" y1="234" x2="232" y2="200" stroke="darkgray"/>
<line x1="148" y1="234" x2="219" y2="298" stroke="darkgray"/>
<line x1="148" y1="234" x2="111" y2="276" stroke="darkgray"/>
<line x1="148" y1="234" x2="89" y2="274" stroke="darkgray"/>
<line x1="502" y1="540" x2="465" y2="449" stroke="darkgray"/>
<line x1="502" y1="540" x2="420" y2="516" stroke="darkgray"/>
<line x1="502" y1="540" x2="549" y2="527" stroke="darkgray"/>
<line x1="502" y1="540" x2="503" y2="538" stroke="darkgray"/>
<line x1="502" y1="540" x2="442" y2="496" stroke="darkgray"/>
<line x1="233" y1="229" x2="242" y2="310" stroke="darkgray"/>
<line x1="233" y1="229" x2="196" y2="300" stroke="darkgray"/>
<line x1="233" y1="229" x2="222" y2="200" stroke="darkgray"/>
<line x1="233" y1="229" x2="232" y2="200" stroke="darkgray"/>
<line x1="233" y1="229" x2="219" y2="298" stroke="darkgray"/>
<line x1="233" y1="229" x2="307" y2="285" stroke="darkgray"/>
<line x1="233" y1="229" x2="301" y2="194" stroke="darkgray"/>
<line x1="354" y1="415" x2="358" y2="397" stroke="darkgray"/>
<line x1="354" y1="415" x2="386" y2="331" stroke="darkgray"/>
<line x1="354" y1="415" x2="326" y2="508" stroke="darkgray"/>
<line x1="354" y1="415" x2="325" y2="441" stroke="darkgray"/>
<line x1="354" y1="415" x2="322" y2="372" stroke="darkgray"/>
<line x1="126" y1="350" x2="145" y2="315" stroke="darkgray"/>
<line x1="126" y1="350" x2="196" y2="300" stroke="darkgray"/>
<line x1="126" y1="350" x2="111" y2="276" stroke="darkgray"/>
<line x1="126" y1="350" x2="89" y2="274" stroke="darkgray"/>
<line x1="245" y1="57" x2="258" y2="66" stroke="darkgray"/>
<line x1="245" y1="57" x2="281" y2="55" stroke="darkgray"/>
<line x1="465" y1="449" x2="420" y2="516" stroke="darkgray"/>
<line x1="465" y1="449" x2="477" y2="384" stroke="darkgray"/>
<line x1="465" y1="449" x2="503" y2="538" stroke="darkgray"/>
<line x1="465" y1="449" x2="442" y2="496" stroke="darkgray"/>
<line x1="242" y1="310" x2="145" y2="315" stroke="darkgray"/>
<line x1="242" y1="310" x2="196" y2="300" stroke="darkgray"/>
<line x1="242" y1="310" x2="219" y2="298" stroke="darkgray"/>
<line x1="242" y1="310" x2="277" y2="339" stroke="darkgray"/>
<line x1="242" y1="310" x2="307" y2="285" stroke="darkgray"/>
<line x1="242" y1="310" x2="244" y2="360" stroke="darkgray"/>
<line x1="358" y1="397" x2="386" y2="331" stroke="darkgray"/>
<line x1="358" y1="397" x2="277" y2="339" stroke="darkgray"/>
<line x1="358" y1="397" x2="325" y2="441" stroke="darkgray"/>
<line x1="358" y1="397" x2="322" y2="372" stroke="darkgray"/>
<line x1="533" y1="135" x2="454" y2="90" stroke="darkgray"/>
<line x1="533" y1="135" x2="482" y2="172" stroke="darkgray"/>
<line x1="101" y1="226" x2="37" y2="168" stroke="darkgray"/>
<line x1="101" y1="226" x2="145" y2="315" stroke="darkgray"/>
<line x1="101" y1="226" x2="96" y2="148" stroke="darkgray"/>
<line x1="101" y1="226" x2="59" y2="204" stroke="darkgray"/>
<line x1="101" y1="226" x2="111" y2="276" stroke="darkgray"/>
<line x1="101" y1="226" x2="89" y2="274" stroke="darkgray"/>
<line x1="37" y1="168" x2="96" y2="148" stroke="darkgray"/>
<line x1="37" y1="168" x2="59" y2="204" stroke="darkgray"/>
<line x1="435" y1="293" x2="386" y2="331" stroke="darkgray"/>
<line x1="435" y1="293" x2="472" y2="305" stroke="darkgray"/>
<line x1="435" y1="293" x2="406" y2="223" stroke="darkgray"/>
<line x1="145" y1="315" x2="196" y2="300" stroke="darkgray"/>
<line x1="145" y1="315" x2="219" y2="298" stroke="darkgray"/>
<line x1="145" y1="315" x2="111" y2="276" stroke="darkgray"/>
<line x1="145" y1="315" x2="89" y2="274" stroke="darkgray"/>
<line x1="330" y1="541" x2="420" y2="516" stroke="darkgray"/>
<line x1="330" y1="541" x2="316" y2="513" stroke="darkgray"/>
<line x1="330" y1="541" x2="326" y2="508" stroke="darkgray"/>
<line x1="454" y1="90" x2="387" y2="28" stroke="darkgray"/>
<line x1="454" y1="90" x2="410" y2="45" stroke="darkgray"/>
<line x1="454" y1="90" x2="393" y2="50" stroke="darkgray"/>
<line x1="454" y1="90" x2="482" y2="172" stroke="darkgray"/>
<line x1="387" y1="28" x2="410" y2="45" stroke="darkgray"/>
<line x1="387" y1="28" x2="393" y2="50" stroke="darkgray"/>
<line x1="79" y1="69" x2="96" y2="148" stroke="darkgray"/>
<line x1="410" y1="45" x2="393" y2="50" stroke="darkgray"/>
<line x1="96" y1="148" x2="59" y2="204" stroke="darkgray"/>
<line x1="386" y1="331" x2="472" y2="305" stroke="darkgray"/>
<line x1="386" y1="331" x2="307" y2="285" stroke="darkgray"/>
<line x1="386" y1="331" x2="322" y2="372" stroke="darkgray"/>
<line x1="196" y1="300" x2="219" y2="298" stroke="darkgray"/>
<line x1="196" y1="300" x2="277" y2="339" stroke="darkgray"/>
<line x1="196" y1="300" x2="111" y2="276" stroke="darkgray"/>
<line x1="196" y1="300" x2="244" y2="360" stroke="darkgray"/>
<line x1="222" y1="200" x2="232" y2="200" stroke="darkgray"/>
<line x1="222" y1="200" x2="219" y2="298" stroke="darkgray"/>
<line x1="222" y1="200" x2="296" y2="149" stroke="darkgray"/>
<line x1="222" y1="200" x2="301" y2="194" stroke="darkgray"/>
<line x1="59" y1="204" x2="111" y2="276" stroke="darkgray"/>
<line x1="59" y1="204" x2="89" y2="274" stroke="darkgray"/>
<line x1="326" y1="151" x2="296" y2="149" stroke="darkgray"/>
<line x1="326" y1="151" x2="301" y2="194" stroke="darkgray"/>
<line x1="420" y1="516" x2="326" y2="508" stroke="darkgray"/>
<line x1="420" y1="516" x2="503" y2="538" stroke="darkgray"/>
<line x1="420" y1="516" x2="442" y2="496" stroke="darkgray"/>
<line x1="472" y1="305" x2="477" y2="384" stroke="darkgray"/>
<line x1="258" y1="66" x2="281" y2="55" stroke="darkgray"/>
<line x1="258" y1="66" x2="296" y2="149" stroke="darkgray"/>
<line x1="232" y1="200" x2="219" y2="298" stroke="darkgray"/>
<line x1="232" y1="200" x2="296" y2="149" stroke="darkgray"/>
<line x1="232" y1="200" x2="301" y2="194" stroke="darkgray"/>
<line x1="219" y1="298" x2="277" y2="339" stroke="darkgray"/>
<line x1="219" y1="298" x2="307" y2="285" stroke="darkgray"/>
<line x1="219" y1="298" x2="244" y2="360" stroke="darkgray"/>
<line x1="281" y1="55" x2="296" y2="149" stroke="darkgray"/>
<line x1="316" y1="513" x2="326" y2="508" stroke="darkgray"/>
<line x1="316" y1="513" x2="325" y2="441" stroke="darkgray"/>
<line x1="277" y1="339" x2="307" y2="285" stroke="darkgray"/>
<line x1="277" y1="339" x2="244" y2="360" stroke="darkgray"/>
<line x1="277" y1="339" x2="322" y2="372" stroke="darkgray"/>
<line x1="549" y1="527" x2="503" y2="538" stroke="darkgray"/>
<line x1="307" y1="285" x2="301" y2="194" stroke="darkgray"/>
<line x1="307" y1="285" x2="244" y2="360" stroke="darkgray"/>
<line x1="307" y1="285" x2="322" y2="372" stroke="darkgray"/>
<line x1="296" y1="149" x2="301" y2="194" stroke="darkgray"/>
<line x1="326" y1="508" x2="325" y2="441" stroke="darkgray"/>
<line x1="503" y1="538" x2="442" y2="496" stroke="darkgray"/>
<line x1="325" y1="441" x2="322" y2="372" stroke="darkgray"/>
<line x1="406" y1="223" x2="482" y2="172" stroke="darkgray"/>
<line x1="111" y1="276" x2="89" y2="274" stroke="darkgray"/>
<line x1="244" y1="360" x2="322" y2="372" stroke="darkgray"/>
<circle cx="406" cy="149" r="4" fill="black" />
<circle cx="148" cy="234" r="4" fill="black" />
<circle cx="502" cy="540" r="4" fill="black" />
<circle cx="233" cy="229" r="4" fill="black" />
<circle cx="354" cy="415" r="4" fill="black" />
<circle cx="126" cy="350" r="4" fill="black" />
<circle cx="245" cy="57" r="4" fill="black" />
<circle cx="465" cy="449" r="4" fill="black" />
<circle cx="242" cy="310" r="4" fill="black" />
<circle cx="358" cy="397" r="4" fill="black" />
<circle cx="533" cy="135" r="4" fill="black" />
<circle cx="101" cy="226" r="4" fill="black" />
<circle cx="37" cy="168" r="4" fill="black" />
<circle cx="435" cy="293" r="4" fill="black" />
<circle cx="145" cy="315" r="4" fill="black" />
<circle cx="330" cy="541" r="4" fill="black" />
<circle cx="454" cy="90" r="4" fill="black" />
<circle cx="387" cy="28" r="4" fill="black" />
<circle cx="79" cy="69" r="4" fill="black" />
<circle cx="410" cy="45" r="4" fill="black" />
<circle cx="96" cy="148" r="4" fill="black" />
<circle cx="386" cy="331" r="4" fill="black" />
<circle cx="196" cy="300" r="4" fill="black" />
<circle cx="393" cy="50" r="4" fill="black" />
<circle cx="222" cy="200" r="4" fill="black" />
<circle cx="59" cy="204" r="4" fill="black" />
<circle cx="326" cy="151" r="4" fill="black" />
<circle cx="420" cy="516" r="4" fill="black" />
<circle cx="472" cy="305" r="4" fill="black" />
<circle cx="258" cy="66" r="4" fill="black" />
<circle cx="232" cy="200" r="4" fill="black" />
<circle cx="219" cy="298" r="4" fill="black" />
<circle cx="281" cy="55" r="4" fill="black" />
<circle cx="316" cy="513" r="4" fill="black" />
<circle cx="277" cy="339" r="4" fill="black" />
<circle cx="549" cy="527" r="4" fill="black" />
<circle cx="477" cy="384" r="4" fill="black" />
<circle cx="307" cy="285" r="4" fill="black" />
<circle cx="296" cy="149" r="4" fill="black" />
<circle cx="326" cy="508" r="4" fill="black" />
<circle cx="503" cy="538" r="4" fill="black" />
<circle cx="325" cy="441" r="4" fill="black" />
<circle cx="301" cy="194" r="4" fill="black" />
<circle cx="406" cy="223" r="4" fill="black" />
<circle cx="111" cy="276" r="4" fill="black" />
<circle cx="442" cy="496" r="4" fill="black" />
<circle cx="89" cy="274" r="4" fill="black" />
<circle cx="244" cy="360" r="4" fill="black" />
<circle cx="482" cy="172" r="4" fill="black" />
<circle cx="322" cy="372" r="4" fill="black" />
<text x="411" y="154">0</text>
<text x="153" y="239">1</text>
<text x="507" y="545">2</text>
<text x="238" y="234">3</text>
<text x="359" y="420">4</text>
<text x="131" y="355">5</text>
<text x="250" y="62">6</text>
<text x="470" y="454">7</text>
<text x="247" y="315">8</text>
<text x="363" y="402">9</text>
<text x="538" y="140">10</text>
<text x="106" y="231">11</text>
<text x="42" y="173">12</text>
<text x="440" y="298">13</text>
<text x="150" y="320">14</text>
<text x="335" y="546">15</text>
<text x="459" y="95">16</text>
<text x="392" y="33">17</text>
<text x="84" y="74">18</text>
<text x="415" y="50">19</text>
<text x="101" y="153">20</text>
<text x="391" y="336">21</text>
<text x="201" y="305">22</text>
<text x="398" y="55">23</text>
<text x="227" y="205">24</text>
<text x="64" y="209">25</text>
<text x="331" y="156">26</text>
<text x="425" y="521">27</text>
<text x="477" y="310">28</text>
<text x="263" y="71">29</text>
<text x="237" y="205">30</text>
<text x="224" y="303">31</text>
<text x="286" y="60">32</text>
<text x="321" y="518">33</text>
<text x="282" y="344">34</text>
<text x="554" y="532">35</text>
<text x="482" y="389">36</text>
<text x="312" y="290">37</text>
<text x="301" y="154">38</text>
<text x="331" y="513">39</text>
<text x="508" y="543">40</text>
<text x="330" y="446">41</text>
<text x="306" y="199">42</text>
<text x="411" y="228">43</text>
<text x="116" y="281">44</text>
<text x="447" y="501">45</text>
<text x="94" y="279">46</text>
<text x="249" y="365">47</text>
<text x="487" y="177">48</text>
<text x="327" y="377">49</text>

</svg>
