<?xml version="1.0" encoding="utf-8"?>
<svg xmlns="http://www.w3.org/2000/svg" version="1.1" viewBox="-96 -12  192 100">
<rect width="100%" height="100%" fill="white" x="-96" y="-12"/>
<line x1="0" y1="0" x2="-48" y2="25" stroke="black"/>
<line x1="0" y1="0" x2="48" y2="25" stroke="black"/>
<circle cx="0" cy="0" r="10" fill="#90a5c3" stroke="#204a87"/>
<text text-anchor="middle" dy="5" x="0" y="0">2</text>
<line x1="-48" y1="25" x2="-72" y2="50" stroke="black"/>
<line x1="-48" y1="25" x2="-24" y2="50" stroke="black"/>
<circle cx="-48" cy="25" r="10" fill="#90a5c3" stroke="#204a87"/>
<text text-anchor="middle" dy="5" x="-48" y="25">3</text>
<line x1="48" y1="25" x2="24" y2="50" stroke="black"/>
<line x1="48" y1="25" x2="72" y2="50" stroke="black"/>
<circle cx="48" cy="25" r="10" fill="#90a5c3" stroke="#204a87"/>
<text text-anchor="middle" dy="5" x="48" y="25">4</text>
<line x1="-72" y1="50" x2="-84" y2="75" stroke="black"/>
<line x1="-72" y1="50" x2="-60" y2="75" stroke="black"/>
<circle cx="-72" cy="50" r="10" fill="#90a5c3" stroke="#204a87"/>
<text text-anchor="middle" dy="5" x="-72" y="50">5</text>
<line x1="-24" y1="50" x2="-36" y2="75" stroke="black"/>
<circle cx="-24" cy="50" r="10" fill="#90a5c3" stroke="#204a87"/>
<text text-anchor="middle" dy="5" x="-24" y="50">6</text>
<circle cx="24" cy="50" r="10" fill="#90a5c3" stroke="#204a87"/>
<text text-anchor="middle" dy="5" x="24" y="50">7</text>
<circle cx="72" cy="50" r="10" fill="#90a5c3" stroke="#204a87"/>
<text text-anchor="middle" dy="5" x="72" y="50">7</text>
<circle cx="-84" cy="75" r="10" fill="#90a5c3" stroke="#204a87"/>
<text text-anchor="middle" dy="5" x="-84" y="75">9</text>
<circle cx="-60" cy="75" r="10" fill="#90a5c3" stroke="#204a87"/>
<text text-anchor="middle" dy="5" x="-60" y="75">10</text>
<circle cx="-36" cy="75" r="10" fill="#90a5c3" stroke="#204a87"/>
<text text-anchor="middle" dy="5" x="-36" y="75">10</text>
</svg>
