<?xml version="1.0" encoding="utf-8"?>
<svg xmlns="http://www.w3.org/2000/svg" version="1.1" viewBox="-125 -25  225 125">
<rect width="100%" height="100%" fill="white" x="-125" y="-25"/>

<line x1="0" y1="0" x2="-50" y2="25" stroke="black"/>
<line x1="0" y1="0" x2="50" y2="25" stroke="black"/>
<circle cx="0" cy="0" r="10" fill="#90a5c3" stroke="#204a87"/>
<text text-anchor="middle" dy="5" x="0" y="0">6</text>
<line x1="-50" y1="25" x2="-75" y2="50" stroke="black"/>
<line x1="-50" y1="25" x2="-25" y2="50" stroke="black"/>
<circle cx="-50" cy="25" r="10" fill="#90a5c3" stroke="#204a87"/>
<text text-anchor="middle" dy="5" x="-50" y="25">3</text>
<line x1="-75" y1="50" x2="-100" y2="75" stroke="black"/>
<circle cx="-75" cy="50" r="10" fill="#90a5c3" stroke="#204a87"/>
<text text-anchor="middle" dy="5" x="-75" y="50">2</text>
<circle cx="-100" cy="75" r="10" fill="#90a5c3" stroke="#204a87"/>
<text text-anchor="middle" dy="5" x="-100" y="75">1</text>
<circle cx="-25" cy="50" r="10" fill="#90a5c3" stroke="#204a87"/>
<text text-anchor="middle" dy="5" x="-25" y="50">4</text>
<line x1="50" y1="25" x2="25" y2="50" stroke="black"/>
<line x1="50" y1="25" x2="75" y2="50" stroke="black"/>
<circle cx="50" cy="25" r="10" fill="#90a5c3" stroke="#204a87"/>
<text text-anchor="middle" dy="5" x="50" y="25">8</text>
<circle cx="25" cy="50" r="10" fill="#90a5c3" stroke="#204a87"/>
<text text-anchor="middle" dy="5" x="25" y="50">7</text>
<circle cx="75" cy="50" r="10" fill="#90a5c3" stroke="#204a87"/>
<text text-anchor="middle" dy="5" x="75" y="50">9</text>
</svg>
